<?xml version="1.0" encoding="UTF-8"?>
<svg width="403.511161px" height="387px" viewBox="0 0 403.511161 387" version="1.1" xmlns="http://www.w3.org/2000/svg" xmlns:xlink="http://www.w3.org/1999/xlink">
    <title>形状结合</title>
    <g id="页面-1" stroke="none" stroke-width="1" fill="none" fill-rule="evenodd">
        <path d="M211.045337,0 C294.988739,0 367.485546,44.9343398 401.483867,110.000097 L337.000901,109.997943 C308.761945,74.2522686 262.865288,51 211.045337,51 C125.208697,51 55.6243523,114.799423 55.6243523,193.5 C55.6243523,272.200577 125.208697,336 211.045337,336 C264.773414,336 312.133948,311.003804 340.047954,273.003069 L403.511161,273.003337 C370.43106,340.218456 296.696775,387 211.045337,387 C94.4882158,387 0,300.367099 0,193.5 C0,86.6329009 94.4882158,0 211.045337,0 Z M336.761057,164 L304.545337,214 L88.5453368,214 L88.5453368,164 L336.761057,164 Z" id="形状结合" fill="#000000"></path>
    </g>
</svg>